<?xml version="1.0" encoding="UTF-8" standalone="no"?>
<!DOCTYPE svg PUBLIC "-//W3C//DTD SVG 1.1//EN"
 "http://www.w3.org/Graphics/SVG/1.1/DTD/svg11.dtd">
<!-- Generated by graphviz version 8.0.5 (20230506.1012)
 -->
<!-- Title: Tree Pages: 1 -->
<svg width="720pt" height="434pt"
 viewBox="0.00 0.00 720.00 434.01" xmlns="http://www.w3.org/2000/svg" xmlns:xlink="http://www.w3.org/1999/xlink">
<g id="graph0" class="graph" transform="scale(0.476979 0.476979) rotate(0) translate(4 905.92)">
<title>Tree</title>
<polygon fill="white" stroke="none" points="-4,4 -4,-905.92 1505.5,-905.92 1505.5,4 -4,4"/>
<!-- 0 -->
<g id="node1" class="node">
<title>0</title>
<path fill="#f3c4a3" stroke="black" d="M611,-872.5C611,-872.5 389.5,-872.5 389.5,-872.5 383.5,-872.5 377.5,-866.5 377.5,-860.5 377.5,-860.5 377.5,-807.5 377.5,-807.5 377.5,-801.5 383.5,-795.5 389.5,-795.5 389.5,-795.5 611,-795.5 611,-795.5 617,-795.5 623,-801.5 623,-807.5 623,-807.5 623,-860.5 623,-860.5 623,-866.5 617,-872.5 611,-872.5"/>
<text text-anchor="start" x="449.62" y="-855.2" font-family="Helvetica,sans-Serif" font-size="14.00">year ≤ 2004.0</text>
<text text-anchor="start" x="385.5" y="-837.95" font-family="Helvetica,sans-Serif" font-size="14.00">squared_error = 2847839307.49</text>
<text text-anchor="start" x="447.38" y="-820.7" font-family="Helvetica,sans-Serif" font-size="14.00">samples = 307</text>
<text text-anchor="start" x="432.75" y="-803.45" font-family="Helvetica,sans-Serif" font-size="14.00">value = 372572.59</text>
</g>
<!-- 1 -->
<g id="node2" class="node">
<title>1</title>
<path fill="#fae8da" stroke="black" d="M484,-673.5C484,-673.5 262.5,-673.5 262.5,-673.5 256.5,-673.5 250.5,-667.5 250.5,-661.5 250.5,-661.5 250.5,-608.5 250.5,-608.5 250.5,-602.5 256.5,-596.5 262.5,-596.5 262.5,-596.5 484,-596.5 484,-596.5 490,-596.5 496,-602.5 496,-608.5 496,-608.5 496,-661.5 496,-661.5 496,-667.5 490,-673.5 484,-673.5"/>
<text text-anchor="start" x="332" y="-656.2" font-family="Helvetica,sans-Serif" font-size="14.00">area ≤ 67.5</text>
<text text-anchor="start" x="258.5" y="-638.95" font-family="Helvetica,sans-Serif" font-size="14.00">squared_error = 1091488630.67</text>
<text text-anchor="start" x="320.38" y="-621.7" font-family="Helvetica,sans-Serif" font-size="14.00">samples = 170</text>
<text text-anchor="start" x="305.75" y="-604.45" font-family="Helvetica,sans-Serif" font-size="14.00">value = 332361.27</text>
</g>
<!-- 0&#45;&gt;1 -->
<g id="edge1" class="edge">
<title>0&#45;&gt;1</title>
<path fill="none" stroke="black" d="M475.76,-795.02C455.12,-762.99 425.49,-717.04 403.39,-682.76"/>
<polygon fill="black" stroke="black" points="406.02,-681.38 397.66,-674.87 400.14,-685.17 406.02,-681.38"/>
<text text-anchor="middle" x="392.38" y="-693.63" font-family="Helvetica,sans-Serif" font-size="14.00">True</text>
</g>
<!-- 2 -->
<g id="node9" class="node">
<title>2</title>
<path fill="#ea995e" stroke="black" d="M852,-673.5C852,-673.5 648.5,-673.5 648.5,-673.5 642.5,-673.5 636.5,-667.5 636.5,-661.5 636.5,-661.5 636.5,-608.5 636.5,-608.5 636.5,-602.5 642.5,-596.5 648.5,-596.5 648.5,-596.5 852,-596.5 852,-596.5 858,-596.5 864,-602.5 864,-608.5 864,-608.5 864,-661.5 864,-661.5 864,-667.5 858,-673.5 852,-673.5"/>
<text text-anchor="start" x="712.75" y="-656.2" font-family="Helvetica,sans-Serif" font-size="14.00">floor ≤ 9.5</text>
<text text-anchor="start" x="644.5" y="-638.95" font-family="Helvetica,sans-Serif" font-size="14.00">squared_error = 531082491.1</text>
<text text-anchor="start" x="697.38" y="-621.7" font-family="Helvetica,sans-Serif" font-size="14.00">samples = 137</text>
<text text-anchor="start" x="682.75" y="-604.45" font-family="Helvetica,sans-Serif" font-size="14.00">value = 422469.84</text>
</g>
<!-- 0&#45;&gt;2 -->
<g id="edge8" class="edge">
<title>0&#45;&gt;2</title>
<path fill="none" stroke="black" d="M548.45,-795.02C589.96,-762.31 649.9,-715.08 693.67,-680.59"/>
<polygon fill="black" stroke="black" points="695.51,-682.81 701.2,-673.87 691.17,-677.31 695.51,-682.81"/>
<text text-anchor="middle" x="699.25" y="-694.02" font-family="Helvetica,sans-Serif" font-size="14.00">False</text>
</g>
<!-- 3 -->
<g id="node3" class="node">
<title>3</title>
<path fill="#ffffff" stroke="black" d="M224.5,-465.88C224.5,-465.88 12,-465.88 12,-465.88 6,-465.88 0,-459.88 0,-453.88 0,-453.88 0,-418.12 0,-418.12 0,-412.12 6,-406.12 12,-406.12 12,-406.12 224.5,-406.12 224.5,-406.12 230.5,-406.12 236.5,-412.12 236.5,-418.12 236.5,-418.12 236.5,-453.88 236.5,-453.88 236.5,-459.88 230.5,-465.88 224.5,-465.88"/>
<text text-anchor="start" x="8" y="-448.57" font-family="Helvetica,sans-Serif" font-size="14.00">squared_error = 428414206.01</text>
<text text-anchor="start" x="69.88" y="-431.32" font-family="Helvetica,sans-Serif" font-size="14.00">samples = 66</text>
<text text-anchor="start" x="50.75" y="-414.07" font-family="Helvetica,sans-Serif" font-size="14.00">value = 305763.45</text>
</g>
<!-- 1&#45;&gt;3 -->
<g id="edge2" class="edge">
<title>1&#45;&gt;3</title>
<path fill="none" stroke="black" d="M324.08,-596.02C278.09,-560.48 209.89,-507.79 164.77,-472.94"/>
<polygon fill="black" stroke="black" points="167.12,-469.56 157.06,-466.21 162.84,-475.1 167.12,-469.56"/>
</g>
<!-- 4 -->
<g id="node4" class="node">
<title>4</title>
<path fill="#f7d9c3" stroke="black" d="M479.5,-474.5C479.5,-474.5 267,-474.5 267,-474.5 261,-474.5 255,-468.5 255,-462.5 255,-462.5 255,-409.5 255,-409.5 255,-403.5 261,-397.5 267,-397.5 267,-397.5 479.5,-397.5 479.5,-397.5 485.5,-397.5 491.5,-403.5 491.5,-409.5 491.5,-409.5 491.5,-462.5 491.5,-462.5 491.5,-468.5 485.5,-474.5 479.5,-474.5"/>
<text text-anchor="start" x="322.62" y="-457.2" font-family="Helvetica,sans-Serif" font-size="14.00">year ≤ 1984.5</text>
<text text-anchor="start" x="263" y="-439.95" font-family="Helvetica,sans-Serif" font-size="14.00">squared_error = 778417551.73</text>
<text text-anchor="start" x="320.38" y="-422.7" font-family="Helvetica,sans-Serif" font-size="14.00">samples = 104</text>
<text text-anchor="start" x="305.75" y="-405.45" font-family="Helvetica,sans-Serif" font-size="14.00">value = 349240.65</text>
</g>
<!-- 1&#45;&gt;4 -->
<g id="edge3" class="edge">
<title>1&#45;&gt;4</title>
<path fill="none" stroke="black" d="M373.25,-596.02C373.25,-564.54 373.25,-519.6 373.25,-485.52"/>
<polygon fill="black" stroke="black" points="376.75,-485.87 373.25,-475.87 369.75,-485.87 376.75,-485.87"/>
</g>
<!-- 5 -->
<g id="node5" class="node">
<title>5</title>
<path fill="#fbebe0" stroke="black" d="M224.5,-266.88C224.5,-266.88 12,-266.88 12,-266.88 6,-266.88 0,-260.88 0,-254.88 0,-254.88 0,-219.12 0,-219.12 0,-213.12 6,-207.12 12,-207.12 12,-207.12 224.5,-207.12 224.5,-207.12 230.5,-207.12 236.5,-213.12 236.5,-219.12 236.5,-219.12 236.5,-254.88 236.5,-254.88 236.5,-260.88 230.5,-266.88 224.5,-266.88"/>
<text text-anchor="start" x="8" y="-249.57" font-family="Helvetica,sans-Serif" font-size="14.00">squared_error = 501170853.28</text>
<text text-anchor="start" x="69.88" y="-232.32" font-family="Helvetica,sans-Serif" font-size="14.00">samples = 36</text>
<text text-anchor="start" x="50.75" y="-215.07" font-family="Helvetica,sans-Serif" font-size="14.00">value = 328351.78</text>
</g>
<!-- 4&#45;&gt;5 -->
<g id="edge4" class="edge">
<title>4&#45;&gt;5</title>
<path fill="none" stroke="black" d="M324.08,-397.02C278.09,-361.48 209.89,-308.79 164.77,-273.94"/>
<polygon fill="black" stroke="black" points="167.12,-270.56 157.06,-267.21 162.84,-276.1 167.12,-270.56"/>
</g>
<!-- 6 -->
<g id="node6" class="node">
<title>6</title>
<path fill="#f5cfb4" stroke="black" d="M479.5,-275.5C479.5,-275.5 267,-275.5 267,-275.5 261,-275.5 255,-269.5 255,-263.5 255,-263.5 255,-210.5 255,-210.5 255,-204.5 261,-198.5 267,-198.5 267,-198.5 479.5,-198.5 479.5,-198.5 485.5,-198.5 491.5,-204.5 491.5,-210.5 491.5,-210.5 491.5,-263.5 491.5,-263.5 491.5,-269.5 485.5,-275.5 479.5,-275.5"/>
<text text-anchor="start" x="313.62" y="-258.2" font-family="Helvetica,sans-Serif" font-size="14.00">date ≤ 738475.0</text>
<text text-anchor="start" x="263" y="-240.95" font-family="Helvetica,sans-Serif" font-size="14.00">squared_error = 571891535.48</text>
<text text-anchor="start" x="324.88" y="-223.7" font-family="Helvetica,sans-Serif" font-size="14.00">samples = 68</text>
<text text-anchor="start" x="305.75" y="-206.45" font-family="Helvetica,sans-Serif" font-size="14.00">value = 360299.47</text>
</g>
<!-- 4&#45;&gt;6 -->
<g id="edge5" class="edge">
<title>4&#45;&gt;6</title>
<path fill="none" stroke="black" d="M373.25,-397.02C373.25,-365.54 373.25,-320.6 373.25,-286.52"/>
<polygon fill="black" stroke="black" points="376.75,-286.87 373.25,-276.87 369.75,-286.87 376.75,-286.87"/>
</g>
<!-- 11 -->
<g id="node7" class="node">
<title>11</title>
<path fill="#f8dbc6" stroke="black" d="M352.5,-82.88C352.5,-82.88 140,-82.88 140,-82.88 134,-82.88 128,-76.88 128,-70.88 128,-70.88 128,-35.12 128,-35.12 128,-29.12 134,-23.12 140,-23.12 140,-23.12 352.5,-23.12 352.5,-23.12 358.5,-23.12 364.5,-29.12 364.5,-35.12 364.5,-35.12 364.5,-70.88 364.5,-70.88 364.5,-76.88 358.5,-82.88 352.5,-82.88"/>
<text text-anchor="start" x="136" y="-65.58" font-family="Helvetica,sans-Serif" font-size="14.00">squared_error = 532363975.58</text>
<text text-anchor="start" x="197.88" y="-48.33" font-family="Helvetica,sans-Serif" font-size="14.00">samples = 33</text>
<text text-anchor="start" x="178.75" y="-31.07" font-family="Helvetica,sans-Serif" font-size="14.00">value = 346890.55</text>
</g>
<!-- 6&#45;&gt;11 -->
<g id="edge6" class="edge">
<title>6&#45;&gt;11</title>
<path fill="none" stroke="black" d="M346.94,-198.29C325.25,-167.21 294.62,-123.32 272.85,-92.12"/>
<polygon fill="black" stroke="black" points="275.27,-90.48 266.68,-84.28 269.53,-94.48 275.27,-90.48"/>
</g>
<!-- 12 -->
<g id="node8" class="node">
<title>12</title>
<path fill="#f3c4a2" stroke="black" d="M607.5,-82.88C607.5,-82.88 395,-82.88 395,-82.88 389,-82.88 383,-76.88 383,-70.88 383,-70.88 383,-35.12 383,-35.12 383,-29.12 389,-23.12 395,-23.12 395,-23.12 607.5,-23.12 607.5,-23.12 613.5,-23.12 619.5,-29.12 619.5,-35.12 619.5,-35.12 619.5,-70.88 619.5,-70.88 619.5,-76.88 613.5,-82.88 607.5,-82.88"/>
<text text-anchor="start" x="391" y="-65.58" font-family="Helvetica,sans-Serif" font-size="14.00">squared_error = 279797464.08</text>
<text text-anchor="start" x="452.88" y="-48.33" font-family="Helvetica,sans-Serif" font-size="14.00">samples = 35</text>
<text text-anchor="start" x="433.75" y="-31.07" font-family="Helvetica,sans-Serif" font-size="14.00">value = 372942.17</text>
</g>
<!-- 6&#45;&gt;12 -->
<g id="edge7" class="edge">
<title>6&#45;&gt;12</title>
<path fill="none" stroke="black" d="M399.77,-198.29C421.63,-167.21 452.5,-123.32 474.44,-92.12"/>
<polygon fill="black" stroke="black" points="477.77,-94.47 480.66,-84.28 472.04,-90.45 477.77,-94.47"/>
</g>
<!-- 7 -->
<g id="node10" class="node">
<title>7</title>
<path fill="#eba069" stroke="black" d="M856.5,-474.5C856.5,-474.5 644,-474.5 644,-474.5 638,-474.5 632,-468.5 632,-462.5 632,-462.5 632,-409.5 632,-409.5 632,-403.5 638,-397.5 644,-397.5 644,-397.5 856.5,-397.5 856.5,-397.5 862.5,-397.5 868.5,-403.5 868.5,-409.5 868.5,-409.5 868.5,-462.5 868.5,-462.5 868.5,-468.5 862.5,-474.5 856.5,-474.5"/>
<text text-anchor="start" x="699.62" y="-457.2" font-family="Helvetica,sans-Serif" font-size="14.00">year ≤ 2015.5</text>
<text text-anchor="start" x="640" y="-439.95" font-family="Helvetica,sans-Serif" font-size="14.00">squared_error = 360506419.34</text>
<text text-anchor="start" x="701.88" y="-422.7" font-family="Helvetica,sans-Serif" font-size="14.00">samples = 79</text>
<text text-anchor="start" x="682.75" y="-405.45" font-family="Helvetica,sans-Serif" font-size="14.00">value = 414340.56</text>
</g>
<!-- 2&#45;&gt;7 -->
<g id="edge9" class="edge">
<title>2&#45;&gt;7</title>
<path fill="none" stroke="black" d="M750.25,-596.02C750.25,-564.54 750.25,-519.6 750.25,-485.52"/>
<polygon fill="black" stroke="black" points="753.75,-485.87 750.25,-475.87 746.75,-485.87 753.75,-485.87"/>
</g>
<!-- 8 -->
<g id="node13" class="node">
<title>8</title>
<path fill="#e88f4f" stroke="black" d="M1234.5,-474.5C1234.5,-474.5 1022,-474.5 1022,-474.5 1016,-474.5 1010,-468.5 1010,-462.5 1010,-462.5 1010,-409.5 1010,-409.5 1010,-403.5 1016,-397.5 1022,-397.5 1022,-397.5 1234.5,-397.5 1234.5,-397.5 1240.5,-397.5 1246.5,-403.5 1246.5,-409.5 1246.5,-409.5 1246.5,-462.5 1246.5,-462.5 1246.5,-468.5 1240.5,-474.5 1234.5,-474.5"/>
<text text-anchor="start" x="1077.62" y="-457.2" font-family="Helvetica,sans-Serif" font-size="14.00">year ≤ 2015.5</text>
<text text-anchor="start" x="1018" y="-439.95" font-family="Helvetica,sans-Serif" font-size="14.00">squared_error = 550802788.87</text>
<text text-anchor="start" x="1079.88" y="-422.7" font-family="Helvetica,sans-Serif" font-size="14.00">samples = 58</text>
<text text-anchor="start" x="1060.75" y="-405.45" font-family="Helvetica,sans-Serif" font-size="14.00">value = 433542.48</text>
</g>
<!-- 2&#45;&gt;8 -->
<g id="edge12" class="edge">
<title>2&#45;&gt;8</title>
<path fill="none" stroke="black" d="M823.13,-596.02C886.93,-562.77 979.55,-514.5 1045.99,-479.87"/>
<polygon fill="black" stroke="black" points="1047.34,-482.59 1054.59,-474.87 1044.11,-476.38 1047.34,-482.59"/>
</g>
<!-- 13 -->
<g id="node11" class="node">
<title>13</title>
<path fill="#efb286" stroke="black" d="M734.5,-266.88C734.5,-266.88 522,-266.88 522,-266.88 516,-266.88 510,-260.88 510,-254.88 510,-254.88 510,-219.12 510,-219.12 510,-213.12 516,-207.12 522,-207.12 522,-207.12 734.5,-207.12 734.5,-207.12 740.5,-207.12 746.5,-213.12 746.5,-219.12 746.5,-219.12 746.5,-254.88 746.5,-254.88 746.5,-260.88 740.5,-266.88 734.5,-266.88"/>
<text text-anchor="start" x="518" y="-249.57" font-family="Helvetica,sans-Serif" font-size="14.00">squared_error = 208703596.96</text>
<text text-anchor="start" x="579.88" y="-232.32" font-family="Helvetica,sans-Serif" font-size="14.00">samples = 17</text>
<text text-anchor="start" x="560.75" y="-215.07" font-family="Helvetica,sans-Serif" font-size="14.00">value = 393471.53</text>
</g>
<!-- 7&#45;&gt;13 -->
<g id="edge10" class="edge">
<title>7&#45;&gt;13</title>
<path fill="none" stroke="black" d="M726.73,-397.02C705.18,-362.22 673.45,-310.98 651.87,-276.14"/>
<polygon fill="black" stroke="black" points="654.58,-274.87 646.34,-268.21 648.63,-278.56 654.58,-274.87"/>
</g>
<!-- 14 -->
<g id="node12" class="node">
<title>14</title>
<path fill="#ea9b61" stroke="black" d="M980,-266.88C980,-266.88 776.5,-266.88 776.5,-266.88 770.5,-266.88 764.5,-260.88 764.5,-254.88 764.5,-254.88 764.5,-219.12 764.5,-219.12 764.5,-213.12 770.5,-207.12 776.5,-207.12 776.5,-207.12 980,-207.12 980,-207.12 986,-207.12 992,-213.12 992,-219.12 992,-219.12 992,-254.88 992,-254.88 992,-260.88 986,-266.88 980,-266.88"/>
<text text-anchor="start" x="772.5" y="-249.57" font-family="Helvetica,sans-Serif" font-size="14.00">squared_error = 249970979.5</text>
<text text-anchor="start" x="829.88" y="-232.32" font-family="Helvetica,sans-Serif" font-size="14.00">samples = 62</text>
<text text-anchor="start" x="810.75" y="-215.07" font-family="Helvetica,sans-Serif" font-size="14.00">value = 420062.71</text>
</g>
<!-- 7&#45;&gt;14 -->
<g id="edge11" class="edge">
<title>7&#45;&gt;14</title>
<path fill="none" stroke="black" d="M774.93,-397.02C797.54,-362.22 830.83,-310.98 853.47,-276.14"/>
<polygon fill="black" stroke="black" points="856.75,-278.51 859.27,-268.21 850.89,-274.69 856.75,-278.51"/>
</g>
<!-- 9 -->
<g id="node14" class="node">
<title>9</title>
<path fill="#ea9b62" stroke="black" d="M1234.5,-266.88C1234.5,-266.88 1022,-266.88 1022,-266.88 1016,-266.88 1010,-260.88 1010,-254.88 1010,-254.88 1010,-219.12 1010,-219.12 1010,-213.12 1016,-207.12 1022,-207.12 1022,-207.12 1234.5,-207.12 1234.5,-207.12 1240.5,-207.12 1246.5,-213.12 1246.5,-219.12 1246.5,-219.12 1246.5,-254.88 1246.5,-254.88 1246.5,-260.88 1240.5,-266.88 1234.5,-266.88"/>
<text text-anchor="start" x="1018" y="-249.57" font-family="Helvetica,sans-Serif" font-size="14.00">squared_error = 329158206.37</text>
<text text-anchor="start" x="1079.88" y="-232.32" font-family="Helvetica,sans-Serif" font-size="14.00">samples = 31</text>
<text text-anchor="start" x="1060.75" y="-215.07" font-family="Helvetica,sans-Serif" font-size="14.00">value = 419851.23</text>
</g>
<!-- 8&#45;&gt;9 -->
<g id="edge13" class="edge">
<title>8&#45;&gt;9</title>
<path fill="none" stroke="black" d="M1128.25,-397.02C1128.25,-362.81 1128.25,-312.72 1128.25,-277.93"/>
<polygon fill="black" stroke="black" points="1131.75,-278.21 1128.25,-268.21 1124.75,-278.21 1131.75,-278.21"/>
</g>
<!-- 10 -->
<g id="node15" class="node">
<title>10</title>
<path fill="#e58139" stroke="black" d="M1489.5,-266.88C1489.5,-266.88 1277,-266.88 1277,-266.88 1271,-266.88 1265,-260.88 1265,-254.88 1265,-254.88 1265,-219.12 1265,-219.12 1265,-213.12 1271,-207.12 1277,-207.12 1277,-207.12 1489.5,-207.12 1489.5,-207.12 1495.5,-207.12 1501.5,-213.12 1501.5,-219.12 1501.5,-219.12 1501.5,-254.88 1501.5,-254.88 1501.5,-260.88 1495.5,-266.88 1489.5,-266.88"/>
<text text-anchor="start" x="1273" y="-249.57" font-family="Helvetica,sans-Serif" font-size="14.00">squared_error = 342957090.81</text>
<text text-anchor="start" x="1334.88" y="-232.32" font-family="Helvetica,sans-Serif" font-size="14.00">samples = 27</text>
<text text-anchor="start" x="1315.75" y="-215.07" font-family="Helvetica,sans-Serif" font-size="14.00">value = 449262.07</text>
</g>
<!-- 8&#45;&gt;10 -->
<g id="edge14" class="edge">
<title>8&#45;&gt;10</title>
<path fill="none" stroke="black" d="M1177.42,-397.02C1223.41,-361.48 1291.61,-308.79 1336.73,-273.94"/>
<polygon fill="black" stroke="black" points="1338.66,-276.1 1344.44,-267.21 1334.38,-270.56 1338.66,-276.1"/>
</g>
</g>
</svg>
